<?xml version="1.0"?>
<svg xmlns="http://www.w3.org/2000/svg" xmlns:xlink="http://www.w3.org/1999/xlink" version="1.1" id="Capa_1" x="0px" y="0px" viewBox="0 0 472.427 472.427" style="enable-background:new 0 0 472.427 472.427;" xml:space="preserve" width="512px" height="512px" class=""><g><g>
	<g>
		<path d="M238.894,42.723c-13.255,0-24,10.745-24,24c0,13.255,10.745,24,24,24v-16c-4.418,0-8-3.582-8-8c0-4.418,3.582-8,8-8    s8,3.582,8,8h16C262.894,53.468,252.148,42.723,238.894,42.723z" data-original="#000000" class="active-path" data-old_color="#F9F9F9" fill="#FCFCFC"/>
	</g>
</g><g>
	<g>
		<path d="M352.214,56.427h-48.056c0.013-3.277-0.489-6.535-1.488-9.656c-3.623-11.285-13.377-19.507-25.112-21.168l-7.848-1.136    l-3.52-7.12c-7.597-15.402-26.242-21.729-41.644-14.132c-6.138,3.027-11.105,7.995-14.132,14.132l-3.512,7.12l-7.856,1.136    c-11.732,1.664-21.482,9.885-25.104,21.168c-1.001,3.12-1.506,6.379-1.496,9.656h-52.232c-48.577,0.057-87.943,39.423-88,88v320    c0,4.418,3.582,8,8,8h29.8c39.765,0.001,72.001-32.234,72.002-71.998c0-8.099-1.366-16.141-4.042-23.786l-25.76-73.592v-37.6    c57.236-24.447,98.269-76.128,109.104-137.416c3.478-0.502,6.848-1.584,9.968-3.2l7.024-3.696l7.024,3.696    c1.79,0.92,3.665,1.662,5.6,2.216c10.554,61.702,51.71,113.827,109.28,138.408v37.6l-25.76,73.6    c-13.127,37.535,6.66,78.605,44.196,91.732c7.638,2.671,15.672,4.036,23.764,4.036h29.8c4.418,0,8-3.582,8-8v-320    C440.156,95.85,400.791,56.485,352.214,56.427z M48.214,280.059c16.314-0.704,32.458-3.599,48-8.608v24.976h-48V280.059z     M122.862,381.931c6.113,17.117,3.431,36.144-7.176,50.904c-10.43,14.882-27.499,23.699-45.672,23.592h-21.8v-144h16v88h16v-88    h18.328L122.862,381.931z M111.614,248.219c30.708-26.229,48.455-64.543,48.6-104.928v-6.864h-16v6.864    c-0.232,48.956-29.441,93.126-74.4,112.504c27.203-30.733,42.276-70.325,42.4-111.368v-40h-16v40    c-0.109,41.957-17.466,82.023-48,110.8v-110.8c0.044-39.746,32.254-71.956,72-72h56.696c1.364,2.274,3.012,4.366,4.904,6.224    l5.688,5.544l-1.336,7.824c-2.616,14.523,5.476,28.852,19.264,34.112C195.715,179.592,160.771,225.067,111.614,248.219z     M252.774,110.683l-10.736-5.648c-1.15-0.605-2.429-0.921-3.728-0.92c-1.298,0-2.577,0.313-3.728,0.912l-10.744,5.656    c-7.377,3.885-16.506,1.055-20.392-6.321c-1.551-2.945-2.085-6.319-1.52-9.599l2.048-12c0.446-2.594-0.413-5.241-2.296-7.08    l-8.664-8.48c-4.191-3.969-5.695-10.009-3.856-15.48c1.716-5.508,6.473-9.519,12.192-10.28l12-1.744    c2.604-0.383,4.854-2.022,6.016-4.384l5.392-10.888c3.692-7.48,12.749-10.551,20.229-6.859c2.978,1.47,5.389,3.881,6.859,6.859    l5.376,10.888c1.163,2.364,3.417,4.004,6.024,4.384l12,1.744c8.255,1.202,13.972,8.869,12.769,17.123    c-0.478,3.284-2.025,6.32-4.401,8.637l-8.68,8.472c-1.886,1.84-2.745,4.491-2.296,7.088l2.056,12    c1.41,8.222-4.111,16.03-12.333,17.44C259.085,112.765,255.715,112.231,252.774,110.683z M424.214,456.427h-21.8    c-30.928-0.005-55.996-25.081-55.991-56.009c0.001-6.295,1.064-12.545,3.143-18.487l24.32-69.504h18.328v88h16v-88h16V456.427z     M424.214,296.427h-48v-24.976c15.542,5.009,31.686,7.904,48,8.608V296.427z M424.214,255.227    c-30.534-28.777-47.891-68.843-48-110.8v-40h-16v40c0.127,41.045,15.2,80.638,42.4,111.376    c-44.952-19.391-74.157-63.557-74.4-112.512v-6.864h-16v6.864c0.145,40.385,17.892,78.699,48.6,104.928    c-48.746-22.953-83.546-67.867-93.6-120.8c15.842-3.874,25.98-19.354,23.2-35.424l-1.344-7.824l5.688-5.544    c1.904-1.849,3.566-3.932,4.944-6.2h52.512c39.746,0.044,71.956,32.254,72,72V255.227z" data-original="#000000" class="active-path" data-old_color="#F9F9F9" fill="#FCFCFC"/>
	</g>
</g><g>
	<g>
		<rect x="0.214" y="280.427" width="16" height="144" data-original="#000000" class="active-path" data-old_color="#F9F9F9" fill="#FCFCFC"/>
	</g>
</g><g>
	<g>
		<rect x="0.214" y="248.427" width="16" height="16" data-original="#000000" class="active-path" data-old_color="#F9F9F9" fill="#FCFCFC"/>
	</g>
</g><g>
	<g>
		<path d="M352.214,24.427h-16v16h16c57.41,0.066,103.934,46.59,104,104v56h16v-56C472.139,78.184,418.457,24.502,352.214,24.427z" data-original="#000000" class="active-path" data-old_color="#F9F9F9" fill="#FCFCFC"/>
	</g>
</g><g>
	<g>
		<rect x="456.214" y="216.427" width="16" height="16" data-original="#000000" class="active-path" data-old_color="#F9F9F9" fill="#FCFCFC"/>
	</g>
</g></g> </svg>
