<?xml version="1.0"?>
<svg xmlns="http://www.w3.org/2000/svg" xmlns:xlink="http://www.w3.org/1999/xlink" version="1.1" id="Capa_1" x="0px" y="0px" viewBox="0 0 512 512" style="enable-background:new 0 0 512 512;" xml:space="preserve" width="512px" height="512px" class=""><g><g>
	<g>
		<path d="M467,0c-19.555,0-36.228,12.542-42.42,30H87.42C81.228,12.542,64.555,0,45,0C20.187,0,0,20.187,0,45s20.187,45,45,45    c5.259,0,10.305-0.915,15-2.58V467c0,24.813,20.187,45,45,45c11.517,0,22.032-4.354,30-11.495    c7.968,7.142,18.483,11.495,30,11.495c24.813,0,45-20.187,45-45V60h92v407c0,24.813,20.187,45,45,45    c11.517,0,22.032-4.354,30-11.495c7.968,7.142,18.483,11.495,30,11.495c24.813,0,45-20.187,45-45V87.42    c4.695,1.665,9.741,2.58,15,2.58c24.813,0,45-20.187,45-45S491.813,0,467,0z M45,60c-8.271,0-15-6.729-15-15s6.729-15,15-15    s15,6.729,15,15S53.271,60,45,60z M120,467c0,8.271-6.729,15-15,15s-15-6.729-15-15V117.42c4.695,1.665,9.741,2.58,15,2.58    c5.259,0,10.305-0.915,15-2.58V467z M120,75c0,8.271-6.729,15-15,15s-15-6.729-15-15V60h30V75z M180,467c0,8.271-6.729,15-15,15    s-15-6.729-15-15V117.42c4.695,1.665,9.741,2.58,15,2.58c5.259,0,10.305-0.915,15-2.58V467z M180,75c0,8.271-6.729,15-15,15    s-15-6.729-15-15V60h30V75z M362,467c0,8.271-6.729,15-15,15s-15-6.729-15-15V117.42c4.695,1.665,9.741,2.58,15,2.58    c5.259,0,10.305-0.915,15-2.58V467z M362,75c0,8.271-6.729,15-15,15s-15-6.729-15-15V60h30V75z M422,467c0,8.271-6.729,15-15,15    s-15-6.729-15-15V117.42c4.695,1.665,9.741,2.58,15,2.58c5.259,0,10.305-0.915,15-2.58V467z M422,75c0,8.271-6.729,15-15,15    s-15-6.729-15-15V60h30V75z M467,60c-8.271,0-15-6.729-15-15s6.729-15,15-15s15,6.729,15,15S475.271,60,467,60z" data-original="#000000" class="active-path" data-old_color="#ffffff" fill="#ffffff"/>
	</g>
</g></g> </svg>
