<svg xmlns="http://www.w3.org/2000/svg" xmlns:xlink="http://www.w3.org/1999/xlink" width="288.842" height="512" viewBox="0 0 288.842 512"><defs><path id="a" d="M0 0h288.841v512H0z"/></defs><clipPath id="b"><use xlink:href="#a" overflow="visible"/></clipPath><path clip-path="url(#b)" fill="#FFF" d="M129.44 512c-7.643-1.544-15.479-2.46-22.899-4.733C48.934 489.62 13.902 451.233 2.21 392.057.484 383.321.225 374.194.189 365.244 0 318.261.42 271.273.004 224.292c-.358-40.5 26.68-82.154 73.266-93.838 4.026-1.01 8.149-1.639 12.231-2.422 7-1.343 10.289-5.181 10.626-12.315.205-4.31.105-8.688.855-12.908 1.994-11.225 8.124-19.917 17.443-26.352 12.003-8.288 25.542-12.112 39.931-12.627 12.314-.442 24.656-.046 36.984-.166 15.275-.148 27.527-9.064 31.243-23.226 1.245-4.748 1.132-9.864 1.514-14.821a40.693 40.693 0 0 0-.019-6.494C223.312 10.014 227.262 3.766 235.44 0h10c8.412 3.862 11.982 10.303 11.405 19.62-.584 9.442.44 18.929-1.945 28.315-7.066 27.805-32.704 48.181-61.33 48.363-10.665.067-21.331-.074-31.995.041-15.073.164-27.244 8.99-31.217 22.711-.916 3.163-1.417 6.527-1.558 9.822-.752 17.636-14.202 30.82-31.756 31.482-27.221 1.028-47.244 13.438-58.877 38.42-3.78 8.117-5.338 16.856-5.359 25.735-.109 47.66-.326 95.322.021 142.98.428 58.783 42.024 99.862 88.474 109.605 59.798 12.543 118.44-25.165 131.659-84.215 2.019-9.021 2.966-18.458 3.025-27.711.297-46.825.337-93.654.068-140.48-.19-33.165-22.889-57.639-51.197-62.753-9.248-1.671-18.888-1.266-28.356-1.596-10.156-.354-17.118-7.881-16.351-17.98.544-7.171 6.508-14.168 13.657-14.447 17.306-.675 34.705-1.286 51.286 5.306 35.235 14.009 56.591 39.45 62.575 77.076 1.269 7.989 1.052 16.257 1.067 24.397.079 45.161.219 90.323-.058 135.482-.224 36.556-13.247 68.329-37.777 95.268-22.928 25.181-51.528 40.087-85.103 45.532L159.44 512h-30z"/><path clip-path="url(#b)" fill="#FFF" d="M160.746 240.317c-.001 10.648.078 21.297-.028 31.945-.076 7.743-5.476 14.278-12.765 15.803-7.527 1.574-14.983-1.955-18.217-8.996-1.003-2.182-1.523-4.78-1.536-7.192-.117-21.13-.111-42.261-.051-63.391.029-9.906 6.955-16.855 16.496-16.785 9.299.068 16.029 6.977 16.088 16.671.065 10.648.014 21.297.013 31.945"/></svg>